:SAMPLES-PER-SECOND 30
:FULLY-SPECIFIED
:DEGREES
352
root  -55.0933 34.7748 30.3749 -173.18 49.6589 178.769
RightUpLeg  -10.7863 -6.16645 -2.41221
RightLeg  13.8295 -2.48827 -0.44461
RightFoot  -0.157059 -0.056407 0.130498
RightToes  -20.7729 -0.0822147 -0.182353
Spine  -1.42331 -0.0684976 0.819581
Spine1  -2.7903 -0.149229 2.17134
HEad  -61.2704 6.92141 6.67724
LeftShoulder1  -1.94126e-019 -3.10601e-018 -2.51263e-017
LeftArm  -17.7477 32.3753 -78.1398
LeftForeArm  31.7085 -9.4016 -1.65219
LeftHand  -0.309692 -0.200418 6.50379
RightShoulder  -4.96962e-017 0 -2.36833e-017
RightArm  -31.4742 -26.7339 59.895
RightForeArm  60.7131 10.2198 1.54208
RightHand  -0.144951 -3.55207 -8.28398
LeftUpLeg  -9.63935 -0.254753 -0.46604
LeftLeg  9.84293 13.648 1.45771
LeftFoot  3.75948 -0.0283535 1.01431
LeftToes  -17.9483 1.48321e-006 1.01846e-007
353
root  -55.106 34.8377 30.4356 -173.432 48.9376 178.689
RightUpLeg  -10.1672 -6.7572 -2.38464
RightLeg  13.0247 -2.58911 -0.425004
RightFoot  0.246968 -0.0543346 0.107014
RightToes  -20.8974 -0.0822408 -0.182446
Spine  -1.36232 -0.0642348 0.772931
Spine1  -2.73955 -0.152863 2.07183
HEad  -62.2637 8.49002 5.56444
LeftShoulder1  -1.94126e-019 -3.10601e-018 -2.51263e-017
LeftArm  -16.135 28.4719 -77.8835
LeftForeArm  31.2051 -10.3876 -1.81676
LeftHand  -0.323028 0.0836988 7.11818
RightShoulder  -4.96962e-017 0 -2.36833e-017
RightArm  -33.2049 -24.2504 60.4096
RightForeArm  58.5138 10.6472 1.54478
RightHand  -0.15031 -3.71311 -9.45474
LeftUpLeg  -9.00445 -0.700078 -0.418006
LeftLeg  8.55176 13.4233 1.13193
LeftFoot  4.61011 -0.0416706 1.19676
LeftToes  -18.3538 1.48321e-006 1.01846e-007
354
root  -55.1205 34.8871 30.4984 -173.562 48.14 178.622
RightUpLeg  -9.46474 -6.61596 -2.34446
RightLeg  11.8727 -3.50197 -0.502533
RightFoot  0.701911 -0.0521512 0.0823775
RightToes  -20.8817 -0.0822652 -0.182499
Spine  -1.44135 0.0527294 0.710451
Spine1  -2.92131 0.116064 1.93842
HEad  -63.0257 9.9895 4.56991
LeftShoulder1  -1.94126e-019 -3.10601e-018 -2.51263e-017
LeftArm  -14.3944 24.8541 -77.8208
LeftForeArm  31.5541 -13.3029 -2.30768
LeftHand  -0.310504 0.174697 6.95295
RightShoulder  -4.96962e-017 0 -2.36833e-017
RightArm  -33.5683 -22.5196 61.3902
RightForeArm  56.821 11.737 1.50433
RightHand  -0.202081 -3.31667 -10.6746
LeftUpLeg  -8.56817 -1.36045 -0.360016
LeftLeg  7.43891 13.29 0.863828
LeftFoot  5.3405 -0.0559898 1.36202
LeftToes  -18.47 1.48321e-006 1.01846e-007
355
root  -55.1086 34.9326 30.5525 -173.678 47.1753 178.726
RightUpLeg  -8.71625 -8.29985 -2.1921
RightLeg  10.9455 -2.78735 -0.35391
RightFoot  1.04345 -0.0517129 0.0831187
RightToes  -20.6935 -0.0822878 -0.182508
Spine  -1.42952 0.131321 0.592965
Spine1  -2.89813 0.323502 1.73053
HEad  -63.587 12.0815 4.07295
LeftShoulder1  -1.94126e-019 -3.10601e-018 -2.51263e-017
LeftArm  -12.7117 21.236 -78.0131
LeftForeArm  31.2572 -17.1193 -2.94507
LeftHand  -0.339793 -0.129717 7.21723
RightShoulder  -4.96962e-017 0 -2.36833e-017
RightArm  -31.4797 -21.1207 62.9621
RightForeArm  52.4575 13.7985 1.33499
RightHand  -0.209508 -3.25018 -10.7624
LeftUpLeg  -8.00679 -1.89882 -0.172471
LeftLeg  6.33444 12.8957 0.591537
LeftFoot  6.05888 -0.0709546 1.50221
LeftToes  -18.7948 1.48321e-006 1.01846e-007
356
root  -55.087 34.9972 30.5958 -173.856 46.0828 178.921
RightUpLeg  -6.99514 -8.38481 -2.00185
RightLeg  8.44571 -3.74326 -0.310116
RightFoot  2.12707 -0.0463134 0.0134138
RightToes  -20.8681 -0.0823083 -0.18247
Spine  -1.40779 0.193605 0.468937
Spine1  -2.83947 0.470403 1.55532
HEad  -63.797 12.8917 3.6557
LeftShoulder1  -1.94126e-019 -3.10601e-018 -2.51263e-017
LeftArm  -10.7657 17.7353 -78.6828
LeftForeArm  30.2425 -20.8434 -3.54771
LeftHand  -0.347962 0.048587 7.61987
RightShoulder  -4.96962e-017 0 -2.36833e-017
RightArm  -28.3774 -20.0645 64.7796
RightForeArm  48.562 16.1026 1.25296
RightHand  -0.190098 -3.51127 -11.0044
LeftUpLeg  -7.17979 -2.67853 0.0649517
LeftLeg  4.95785 12.5416 0.27645
LeftFoot  7.04358 -0.0946743 1.69977
LeftToes  -19.4831 1.48321e-006 1.01846e-007
357
root  -55.0769 35.0346 30.6709 -173.978 44.9794 179.028
RightUpLeg  -5.95328 -9.09218 -1.81989
RightLeg  6.95777 -4.1153 -0.233649
RightFoot  2.64719 -0.0428949 -0.0275345
RightToes  -20.597 -0.0823263 -0.182383
Spine  -1.36278 0.228365 0.312706
Spine1  -2.73195 0.544282 1.2869
HEad  -63.8331 13.5536 3.68279
LeftShoulder1  -1.94126e-019 -3.10601e-018 -2.51263e-017
LeftArm  -8.35043 14.575 -79.4563
LeftForeArm  28.6931 -24.7724 -4.18113
LeftHand  -0.354372 0.184056 7.94911
RightShoulder  -4.96962e-017 0 -2.36833e-017
RightArm  -25.3039 -19.6338 66.6292
RightForeArm  46.4507 20.5948 2.07201
RightHand  -0.221662 -3.10965 -10.7454
LeftUpLeg  -6.78938 -3.40473 0.285821
LeftLeg  4.12069 12.1635 0.0919055
LeftFoot  7.64857 -0.109015 1.79229
LeftToes  -19.4737 1.48321e-006 1.01846e-007
358
root  -55.0609 35.0553 30.7568 -173.841 43.9754 179.181
RightUpLeg  -5.21831 -10.5688 -1.58922
RightLeg  5.55274 -3.60851 -0.116274
RightFoot  3.19559 -0.0415423 -0.038504
RightToes  -20.7621 -0.0823416 -0.182242
Spine  -1.35581 0.236655 0.211624
Spine1  -2.70492 0.587361 1.08114
HEad  -63.6473 14.002 3.75267
LeftShoulder1  -1.94126e-019 -3.10601e-018 -2.51263e-017
LeftArm  -6.02152 11.9476 -80.4478
LeftForeArm  27.4525 -28.5756 -4.82704
LeftHand  -0.354189 0.306824 8.12515
RightShoulder  -4.96962e-017 0 -2.36833e-017
RightArm  -21.4161 -19.0247 68.2936
RightForeArm  45.9729 25.0096 2.96178
RightHand  -0.256237 -2.59065 -10.2641
LeftUpLeg  -6.93701 -3.87291 0.562135
LeftLeg  3.91004 11.6239 0.0454443
LeftFoot  8.05422 -0.115735 1.80534
LeftToes  -19.8792 1.48321e-006 1.01846e-007
359
root  -55.0563 35.0685 30.8533 -173.662 43.4693 179.282
RightUpLeg  -4.99519 -11.285 -1.36387
RightLeg  4.81061 -3.36679 -0.0648963
RightFoot  3.48969 -0.0407949 -0.0403634
RightToes  -21.1042 -0.0823538 -0.182046
Spine  -1.3827 0.35979 0.118892
Spine1  -2.74584 0.85888 0.890714
HEad  -63.5698 14.2106 3.76249
LeftShoulder1  -1.94126e-019 -3.10601e-018 -2.51263e-017
LeftArm  -4.12715 10.1524 -81.6995
LeftForeArm  26.7226 -32.1848 -5.56724
LeftHand  -0.36242 0.243378 8.21774
RightShoulder  -4.96962e-017 0 -2.36833e-017
RightArm  -17.5725 -18.5818 69.8122
RightForeArm  47.6193 29.0839 3.73836
RightHand  -0.289861 -1.75264 -9.07124
LeftUpLeg  -7.11483 -3.94428 0.778186
LeftLeg  3.67512 11.1868 -0.0018076
LeftFoot  8.40658 -0.121589 1.81586
LeftToes  -20.176 1.48321e-006 1.01846e-007
360
root  -55.0746 35.0788 30.9659 -173.474 43.1188 179.361
RightUpLeg  -5.0327 -11.6039 -1.14563
RightLeg  4.40891 -3.37862 -0.0414933
RightFoot  3.63272 -0.0402445 -0.0389397
RightToes  -20.9626 -0.0823627 -0.18179
Spine  -1.44226 0.447739 0.0488592
Spine1  -2.856 1.04518 0.76114
HEad  -63.4634 14.4758 3.67139
LeftShoulder1  -1.94126e-019 -3.10601e-018 -2.51263e-017
LeftArm  -2.9929 9.40591 -83.033
LeftForeArm  26.601 -35.5301 -6.43148
LeftHand  -0.375314 -0.134424 7.96175
RightShoulder  -4.96962e-017 0 -2.36833e-017
RightArm  -13.2781 -17.7336 71.0912
RightForeArm  49.8042 32.4568 4.38982
RightHand  -0.308859 -0.999308 -8.09846
LeftUpLeg  -7.29124 -4.40437 0.999546
LeftLeg  3.33058 11.3366 -0.0695035
LeftFoot  8.19461 -0.117425 1.80067
LeftToes  -17.5807 1.48321e-006 1.01846e-007
361
root  -55.0858 35.0816 31.0828 -173.113 43.0336 179.472
RightUpLeg  -5.4134 -11.75 -0.859477
RightLeg  4.30629 -3.31722 -0.0348013
RightFoot  3.72137 -0.0397248 -0.0366036
RightToes  -21.2122 -0.082368 -0.181471
Spine  -1.40343 0.509102 -0.0337614
Spine1  -2.7699 1.17277 0.604253
HEad  -63.6328 14.875 3.64575
LeftShoulder1  -1.94126e-019 -3.10601e-018 -2.51263e-017
LeftArm  -1.82219 9.26246 -83.9138
LeftForeArm  27.6724 -39.1928 -7.3962
LeftHand  -0.377105 -0.814617 7.17891
RightShoulder  -4.96962e-017 0 -2.36833e-017
RightArm  -8.63789 -16.759 72.0594
RightForeArm  52.9314 35.4206 4.94465
RightHand  -0.404069 0.480668 -8.07362
LeftUpLeg  -7.52608 -4.35807 1.21379
LeftLeg  2.89984 11.1547 -0.151688
LeftFoot  9.24187 -0.147198 1.98257
LeftToes  -21.1446 1.48321e-006 1.01846e-007
362
root  -55.0832 35.0867 31.184 -172.736 43.0958 179.536
RightUpLeg  -5.81363 -11.8275 -0.612693
RightLeg  4.17579 -3.18156 -0.0261239
RightFoot  3.75863 -0.0389289 -0.037737
RightToes  -21.0179 -0.0823694 -0.181087
Spine  -1.48251 0.632224 -0.068499
Spine1  -2.9224 1.412 0.546928
HEad  -63.4086 15.1038 3.61035
LeftShoulder1  -1.94126e-019 -3.10601e-018 -2.51263e-017
LeftArm  -0.0176089 9.81294 -84.5038
LeftForeArm  30.2169 -41.9489 -8.07912
LeftHand  -0.384112 -1.81695 6.36885
RightShoulder  -4.96962e-017 0 -2.36833e-017
RightArm  -5.71563 -16.5239 72.8348
RightForeArm  56.385 38.3448 5.51876
RightHand  -0.492192 2.03834 -7.87159
LeftUpLeg  -7.64872 -4.39237 1.41599
LeftLeg  2.24774 11.2836 -0.280965
LeftFoot  9.58265 -0.160269 2.07344
LeftToes  -20.9155 1.48321e-006 1.01846e-007
363
root  -55.0299 35.0929 31.2572 -172.392 43.5265 179.56
RightUpLeg  -6.2165 -11.2098 -0.397502
RightLeg  4.15966 -3.36915 -0.0267574
RightFoot  3.74082 -0.0375112 -0.0472724
RightToes  -20.8377 -0.0823665 -0.180634
Spine  -1.4927 0.86274 -0.121723
Spine1  -2.93908 1.8644 0.444646
HEad  -63.3955 15.5163 3.60082
LeftShoulder1  -1.94126e-019 -3.10601e-018 -2.51263e-017
LeftArm  2.13736 10.5341 -84.5413
LeftForeArm  32.7471 -43.7999 -8.51985
LeftHand  -0.405685 -2.84961 5.94529
RightShoulder  -4.96962e-017 0 -2.36833e-017
RightArm  -4.05446 -16.689 73.4508
RightForeArm  57.6798 41.1984 6.22758
RightHand  -0.513217 2.96491 -7.3531
LeftUpLeg  -7.53426 -3.57817 1.55656
LeftLeg  1.39563 10.8879 -0.432248
LeftFoot  10.0733 -0.170852 2.09993
LeftToes  -21.3139 1.48321e-006 1.01846e-007
364
root  -55.0074 35.0891 31.3238 -172.313 43.2874 179.516
RightUpLeg  -6.44202 -11.418 -0.291178
RightLeg  4.35108 -3.39031 -0.0382257
RightFoot  3.61796 -0.0371866 -0.0406978
RightToes  -20.8158 -0.0823591 -0.18011
Spine  -1.42764 0.866221 -0.157705
Spine1  -2.81778 1.86435 0.376569
HEad  -63.3673 15.7745 3.44694
LeftShoulder1  -1.94126e-019 -3.10601e-018 -2.51263e-017
LeftArm  4.04717 11.3699 -84.2475
LeftForeArm  33.9512 -44.4361 -8.65267
LeftHand  -0.411292 -3.23918 5.77812
RightShoulder  -4.96962e-017 0 -2.36833e-017
RightArm  -3.39373 -17.1067 73.8573
RightForeArm  56.9826 43.2019 6.84125
RightHand  -0.506031 3.01333 -7.21501
LeftUpLeg  -7.48941 -3.60815 1.63947
LeftLeg  0.893631 10.6983 -0.518109
LeftFoot  10.4478 -0.180533 2.13594
LeftToes  -21.6066 1.48321e-006 1.01846e-007
365
root  -55.0501 35.076 31.4265 -172.001 42.1107 179.653
RightUpLeg  -6.92201 -12.4392 -0.00300426
RightLeg  4.81623 -3.47787 -0.0673998
RightFoot  3.39698 -0.0370123 -0.0314801
RightToes  -20.5458 -0.0823469 -0.17951
Spine  -1.39721 0.555443 -0.106632
Spine1  -2.77416 1.24621 0.48535
HEad  -63.1981 16.1766 3.52845
LeftShoulder1  -1.94126e-019 -3.10601e-018 -2.51263e-017
LeftArm  5.32281 12.1717 -83.8782
LeftForeArm  33.7043 -43.569 -8.37088
LeftHand  -0.406698 -3.38299 5.63202
RightShoulder  -4.96962e-017 0 -2.36833e-017
RightArm  -3.53979 -17.8006 73.971
RightForeArm  55.7198 44.1704 7.19761
RightHand  -0.52096 2.96254 -7.46234
LeftUpLeg  -8.18423 -4.70903 1.931
LeftLeg  1.16464 10.6516 -0.465715
LeftFoot  10.6047 -0.185057 2.15532
LeftToes  -22.1233 1.48321e-006 1.01846e-007
366
root  -55.0195 35.0697 31.4707 -171.973 41.7622 179.578
RightUpLeg  -7.13172 -12.575 0.059716
RightLeg  5.13065 -3.69214 -0.0918169
RightFoot  3.16176 -0.0363892 -0.0281778
RightToes  -20.2503 -0.0823297 -0.178831
Spine  -1.33309 0.48449 -0.0933895
Spine1  -2.65922 1.09196 0.517011
HEad  -62.3077 17.018 3.78543
LeftShoulder1  -1.94126e-019 -3.10601e-018 -2.51263e-017
LeftArm  5.76251 13.2738 -83.4191
LeftForeArm  33.0871 -41.4133 -7.71216
LeftHand  -0.390974 -3.22945 5.51029
RightShoulder  -4.96962e-017 0 -2.36833e-017
RightArm  -4.07481 -18.4317 73.9981
RightForeArm  55.0189 43.8272 7.12737
RightHand  -0.55926 2.87802 -8.06886
LeftUpLeg  -8.29036 -4.54702 1.96191
LeftLeg  1.06749 10.1667 -0.461918
LeftFoot  10.7639 -0.18133 2.08942
LeftToes  -22.2473 1.48321e-006 1.01846e-007
